<svg width="370" height="82" viewBox="0 0 370 82" fill="none" xmlns="http://www.w3.org/2000/svg">
<path d="M348.009 64.7625C343.584 64.7625 339.758 63.8226 336.53 61.9426C333.321 60.0437 330.843 57.4042 329.096 54.0242C327.349 50.6251 326.475 46.6849 326.475 42.2034C326.475 37.684 327.349 33.7343 329.096 30.3542C330.843 26.9552 333.321 24.3157 336.53 22.4358C339.758 20.5369 343.584 19.5874 348.009 19.5874C352.433 19.5874 356.25 20.5369 359.459 22.4358C362.687 24.3157 365.175 26.9552 366.922 30.3542C368.669 33.7343 369.542 37.684 369.542 42.2034C369.542 46.6849 368.669 50.6251 366.922 54.0242C365.175 57.4042 362.687 60.0437 359.459 61.9426C356.25 63.8226 352.433 64.7625 348.009 64.7625ZM348.066 55.3629C350.079 55.3629 351.759 54.7932 353.107 53.6539C354.456 52.4956 355.472 50.9195 356.155 48.9256C356.858 46.9317 357.209 44.6625 357.209 42.118C357.209 39.5735 356.858 37.3043 356.155 35.3104C355.472 33.3165 354.456 31.7404 353.107 30.5821C351.759 29.4238 350.079 28.8446 348.066 28.8446C346.034 28.8446 344.325 29.4238 342.939 30.5821C341.571 31.7404 340.537 33.3165 339.834 35.3104C339.15 37.3043 338.809 39.5735 338.809 42.118C338.809 44.6625 339.15 46.9317 339.834 48.9256C340.537 50.9195 341.571 52.4956 342.939 53.6539C344.325 54.7932 346.034 55.3629 348.066 55.3629Z" fill="black"/>
<path d="M297.194 81.2261C293.263 81.2261 289.893 80.6849 287.082 79.6025C284.291 78.5391 282.069 77.0865 280.417 75.2445C278.765 73.4026 277.692 71.3328 277.198 69.0351L288.421 67.5254C288.763 68.3989 289.304 69.2155 290.044 69.975C290.785 70.7346 291.763 71.3423 292.978 71.798C294.213 72.2727 295.713 72.5101 297.479 72.5101C300.118 72.5101 302.292 71.8645 304.001 70.5732C305.729 69.3009 306.593 67.1646 306.593 64.1644V56.1604H306.081C305.549 57.3758 304.752 58.5246 303.688 59.607C302.625 60.6894 301.258 61.5724 299.587 62.256C297.915 62.9396 295.922 63.2814 293.605 63.2814C290.32 63.2814 287.329 62.5218 284.633 61.0027C281.955 59.4646 279.819 57.1194 278.224 53.9672C276.648 50.796 275.86 46.7893 275.86 41.9471C275.86 36.9909 276.667 32.8513 278.281 29.5282C279.895 26.2051 282.041 23.7175 284.718 22.0655C287.414 20.4134 290.367 19.5874 293.576 19.5874C296.026 19.5874 298.077 20.0052 299.729 20.8407C301.381 21.6572 302.71 22.6826 303.717 23.9169C304.742 25.1322 305.53 26.3285 306.081 27.5059H306.537V20.1571H318.585V64.3353C318.585 68.0571 317.674 71.1714 315.851 73.6779C314.028 76.1845 311.502 78.0644 308.274 79.3177C305.065 80.59 301.371 81.2261 297.194 81.2261ZM297.45 54.1666C299.406 54.1666 301.058 53.6824 302.406 52.7139C303.774 51.7265 304.818 50.3213 305.54 48.4983C306.28 46.6564 306.65 44.4537 306.65 41.8901C306.65 39.3266 306.29 37.1049 305.568 35.2249C304.846 33.326 303.802 31.8544 302.435 30.81C301.068 29.7656 299.406 29.2434 297.45 29.2434C295.456 29.2434 293.776 29.7846 292.409 30.8669C291.041 31.9303 290.006 33.4115 289.304 35.3104C288.601 37.2093 288.25 39.4026 288.25 41.8901C288.25 44.4157 288.601 46.5994 289.304 48.4414C290.025 50.2643 291.06 51.679 292.409 52.6854C293.776 53.6729 295.456 54.1666 297.45 54.1666Z" fill="black"/>
<path d="M255.629 63.908V20.1571H267.763V63.908H255.629ZM261.725 14.5173C259.921 14.5173 258.373 13.9192 257.082 12.7228C255.809 11.5075 255.173 10.0549 255.173 8.36484C255.173 6.69379 255.809 5.26012 257.082 4.0638C258.373 2.8485 259.921 2.24084 261.725 2.24084C263.529 2.24084 265.067 2.8485 266.339 4.0638C267.63 5.26012 268.276 6.69379 268.276 8.36484C268.276 10.0549 267.63 11.5075 266.339 12.7228C265.067 13.9192 263.529 14.5173 261.725 14.5173Z" fill="black"/>
<path d="M217.71 38.6146V63.9081H205.576V5.57349H217.368V27.8762H217.881C218.868 25.2937 220.464 23.2713 222.666 21.8092C224.869 20.328 227.632 19.5875 230.955 19.5875C233.993 19.5875 236.642 20.2521 238.902 21.5813C241.181 22.8916 242.947 24.781 244.2 27.2496C245.472 29.6992 246.099 32.633 246.08 36.051V63.9081H233.946V38.2158C233.965 35.5193 233.281 33.421 231.895 31.9209C230.528 30.4208 228.61 29.6707 226.141 29.6707C224.489 29.6707 223.027 30.022 221.755 30.7246C220.502 31.4272 219.514 32.4526 218.793 33.8008C218.09 35.1301 217.729 36.7346 217.71 38.6146Z" fill="black"/>
<path d="M178.267 64.7625C173.786 64.7625 169.931 63.8131 166.703 61.9142C163.494 59.9963 161.025 57.3378 159.297 53.9387C157.588 50.5397 156.734 46.6279 156.734 42.2034C156.734 37.722 157.598 33.7913 159.326 30.4112C161.073 27.0121 163.551 24.3632 166.76 22.4642C169.969 20.5464 173.786 19.5874 178.21 19.5874C182.027 19.5874 185.369 20.2805 188.237 21.6667C191.104 23.0529 193.373 24.9993 195.044 27.5059C196.715 30.0124 197.636 32.9557 197.807 36.3358H186.357C186.034 34.1521 185.179 32.3956 183.793 31.0663C182.426 29.7181 180.632 29.044 178.41 29.044C176.53 29.044 174.887 29.5567 173.482 30.5821C172.096 31.5885 171.014 33.0602 170.235 34.9971C169.456 36.934 169.067 39.2791 169.067 42.0325C169.067 44.8239 169.447 47.1976 170.207 49.1535C170.985 51.1093 172.077 52.6 173.482 53.6254C174.887 54.6508 176.53 55.1635 178.41 55.1635C179.796 55.1635 181.04 54.8787 182.141 54.309C183.262 53.7393 184.183 52.9133 184.904 51.8309C185.645 50.7296 186.129 49.4098 186.357 47.8717H197.807C197.617 51.2138 196.706 54.1571 195.073 56.7016C193.459 59.2272 191.227 61.2021 188.379 62.6263C185.531 64.0504 182.16 64.7625 178.267 64.7625Z" fill="black"/>
<path d="M136.646 63.908V20.1571H148.78V63.908H136.646ZM142.741 14.5173C140.937 14.5173 139.39 13.9192 138.098 12.7228C136.826 11.5075 136.19 10.0549 136.19 8.36484C136.19 6.69379 136.826 5.26012 138.098 4.0638C139.39 2.8485 140.937 2.24084 142.741 2.24084C144.545 2.24084 146.083 2.8485 147.355 4.0638C148.647 5.26012 149.292 6.69379 149.292 8.36484C149.292 10.0549 148.647 11.5075 147.355 12.7228C146.083 13.9192 144.545 14.5173 142.741 14.5173Z" fill="black"/>
<path d="M78.8308 63.9081V5.57349H91.1642V31.2943H91.9333L112.926 5.57349H127.709L106.061 31.693L127.965 63.9081H113.211L97.2313 39.9248L91.1642 47.3306V63.9081H78.8308Z" fill="black"/>
<path d="M15.4309 0.562622C15.1932 2.62851 15.5047 8.10679 18.6528 13.4928L26.8795 23.8591L36.7108 20.2807C41.9542 18.3722 44.7735 13.8821 45.706 10.3263L34.6818 10.6276L32.4745 2.52391C30.1709 4.35207 24.0142 7.83008 24.0142 7.83008C24.0142 7.83008 17.7755 2.92567 15.4309 0.562622Z" fill="black"/>
<path d="M33.09 51.6708C33.09 58.4292 27.6112 63.9079 20.8528 63.9079C14.0944 63.9079 8.61566 58.4292 8.61566 51.6708C8.61566 44.9124 14.0944 39.4336 20.8528 39.4336C27.6112 39.4336 33.09 44.9124 33.09 51.6708Z" fill="#F43F5E"/>
<path d="M45.3273 39.4335C45.3273 46.1919 39.8485 51.6707 33.0901 51.6707C26.3317 51.6707 20.8529 46.1919 20.8529 39.4335C20.8529 32.6751 26.3317 27.1964 33.0901 27.1964C39.8485 27.1964 45.3273 32.6751 45.3273 39.4335Z" fill="#F43F5E"/>
<path d="M37.1692 23.1174C37.1692 29.8758 31.6905 35.3545 24.9321 35.3545C18.1737 35.3545 12.6949 29.8758 12.6949 23.1174C12.6949 16.359 18.1737 10.8802 24.9321 10.8802C31.6905 10.8802 37.1692 16.359 37.1692 23.1174Z" fill="#F43F5E"/>
<path d="M53.4855 27.1964C53.4855 33.9548 48.0067 39.4336 41.2483 39.4336C34.4899 39.4336 29.0111 33.9548 29.0111 27.1964C29.0111 20.438 34.4899 14.9592 41.2483 14.9592C48.0067 14.9592 53.4855 20.438 53.4855 27.1964Z" fill="#F43F5E"/>
<path d="M24.9319 19.0383C24.9319 25.7967 19.4532 31.2755 12.6948 31.2755C5.93635 31.2755 0.457581 25.7967 0.457581 19.0383C0.457581 12.2799 5.93635 6.80115 12.6948 6.80115C19.4532 6.80115 24.9319 12.2799 24.9319 19.0383Z" fill="#F43F5E"/>
<path d="M24.9321 35.3546C24.9321 42.113 19.4533 47.5918 12.6949 47.5918C5.93647 47.5918 0.457703 42.113 0.457703 35.3546C0.457703 28.5962 5.93647 23.1174 12.6949 23.1174C19.4533 23.1174 24.9321 28.5962 24.9321 35.3546Z" fill="#F43F5E"/>
</svg>
