<svg width="512" height="512" viewBox="0 0 512 512" fill="none" xmlns="http://www.w3.org/2000/svg">
<rect width="512" height="512" fill="white"/>
<path d="M424.009 294.763C419.584 294.763 415.758 293.823 412.53 291.943C409.321 290.044 406.843 287.404 405.096 284.024C403.349 280.625 402.475 276.685 402.475 272.203C402.475 267.684 403.349 263.734 405.096 260.354C406.843 256.955 409.321 254.316 412.53 252.436C415.758 250.537 419.584 249.587 424.009 249.587C428.433 249.587 432.25 250.537 435.459 252.436C438.687 254.316 441.175 256.955 442.922 260.354C444.669 263.734 445.542 267.684 445.542 272.203C445.542 276.685 444.669 280.625 442.922 284.024C441.175 287.404 438.687 290.044 435.459 291.943C432.25 293.823 428.433 294.763 424.009 294.763ZM424.066 285.363C426.079 285.363 427.759 284.793 429.107 283.654C430.456 282.496 431.472 280.919 432.155 278.926C432.858 276.932 433.209 274.663 433.209 272.118C433.209 269.573 432.858 267.304 432.155 265.31C431.472 263.317 430.456 261.74 429.107 260.582C427.759 259.424 426.079 258.845 424.066 258.845C422.034 258.845 420.325 259.424 418.939 260.582C417.571 261.74 416.537 263.317 415.834 265.31C415.15 267.304 414.809 269.573 414.809 272.118C414.809 274.663 415.15 276.932 415.834 278.926C416.537 280.919 417.571 282.496 418.939 283.654C420.325 284.793 422.034 285.363 424.066 285.363Z" fill="black"/>
<path d="M373.194 311.226C369.263 311.226 365.893 310.685 363.082 309.603C360.291 308.539 358.069 307.086 356.417 305.245C354.765 303.403 353.692 301.333 353.198 299.035L364.421 297.525C364.763 298.399 365.304 299.215 366.044 299.975C366.785 300.735 367.763 301.342 368.978 301.798C370.213 302.273 371.713 302.51 373.479 302.51C376.118 302.51 378.292 301.864 380.001 300.573C381.729 299.301 382.593 297.165 382.593 294.164V286.16H382.081C381.549 287.376 380.752 288.525 379.688 289.607C378.625 290.689 377.258 291.572 375.587 292.256C373.915 292.94 371.922 293.281 369.605 293.281C366.32 293.281 363.329 292.522 360.633 291.003C357.955 289.465 355.819 287.119 354.224 283.967C352.648 280.796 351.86 276.789 351.86 271.947C351.86 266.991 352.667 262.851 354.281 259.528C355.895 256.205 358.041 253.718 360.718 252.065C363.414 250.413 366.367 249.587 369.576 249.587C372.026 249.587 374.077 250.005 375.729 250.841C377.381 251.657 378.71 252.683 379.717 253.917C380.742 255.132 381.53 256.329 382.081 257.506H382.537V250.157H394.585V294.335C394.585 298.057 393.674 301.171 391.851 303.678C390.028 306.184 387.502 308.064 384.274 309.318C381.065 310.59 377.371 311.226 373.194 311.226ZM373.45 284.167C375.406 284.167 377.058 283.682 378.406 282.714C379.774 281.726 380.818 280.321 381.54 278.498C382.28 276.656 382.65 274.454 382.65 271.89C382.65 269.327 382.29 267.105 381.568 265.225C380.846 263.326 379.802 261.854 378.435 260.81C377.068 259.766 375.406 259.243 373.45 259.243C371.456 259.243 369.776 259.785 368.409 260.867C367.041 261.93 366.006 263.411 365.304 265.31C364.601 267.209 364.25 269.403 364.25 271.89C364.25 274.416 364.601 276.599 365.304 278.441C366.025 280.264 367.06 281.679 368.409 282.685C369.776 283.673 371.456 284.167 373.45 284.167Z" fill="black"/>
<path d="M331.629 293.908V250.157H343.763V293.908H331.629ZM337.725 244.517C335.921 244.517 334.373 243.919 333.082 242.723C331.809 241.508 331.173 240.055 331.173 238.365C331.173 236.694 331.809 235.26 333.082 234.064C334.373 232.848 335.921 232.241 337.725 232.241C339.529 232.241 341.067 232.848 342.339 234.064C343.63 235.26 344.276 236.694 344.276 238.365C344.276 240.055 343.63 241.508 342.339 242.723C341.067 243.919 339.529 244.517 337.725 244.517Z" fill="black"/>
<path d="M293.71 268.615V293.908H281.576V235.573H293.368V257.876H293.881C294.868 255.294 296.464 253.271 298.666 251.809C300.869 250.328 303.632 249.587 306.955 249.587C309.993 249.587 312.642 250.252 314.902 251.581C317.181 252.892 318.947 254.781 320.2 257.25C321.472 259.699 322.099 262.633 322.08 266.051V293.908H309.946V268.216C309.965 265.519 309.281 263.421 307.895 261.921C306.528 260.421 304.61 259.671 302.141 259.671C300.489 259.671 299.027 260.022 297.755 260.725C296.502 261.427 295.514 262.453 294.793 263.801C294.09 265.13 293.729 266.735 293.71 268.615Z" fill="black"/>
<path d="M254.267 294.763C249.786 294.763 245.931 293.813 242.703 291.914C239.494 289.996 237.025 287.338 235.297 283.939C233.588 280.54 232.734 276.628 232.734 272.203C232.734 267.722 233.598 263.791 235.326 260.411C237.073 257.012 239.551 254.363 242.76 252.464C245.969 250.546 249.786 249.587 254.21 249.587C258.027 249.587 261.369 250.281 264.237 251.667C267.104 253.053 269.373 254.999 271.044 257.506C272.715 260.012 273.636 262.956 273.807 266.336H262.357C262.034 264.152 261.179 262.396 259.793 261.066C258.426 259.718 256.632 259.044 254.41 259.044C252.53 259.044 250.887 259.557 249.482 260.582C248.096 261.589 247.014 263.06 246.235 264.997C245.456 266.934 245.067 269.279 245.067 272.033C245.067 274.824 245.447 277.198 246.207 279.153C246.985 281.109 248.077 282.6 249.482 283.625C250.887 284.651 252.53 285.164 254.41 285.164C255.796 285.164 257.04 284.879 258.141 284.309C259.262 283.739 260.183 282.913 260.904 281.831C261.645 280.73 262.129 279.41 262.357 277.872H273.807C273.617 281.214 272.706 284.157 271.073 286.702C269.459 289.227 267.227 291.202 264.379 292.626C261.531 294.05 258.16 294.763 254.267 294.763Z" fill="black"/>
<path d="M212.646 293.908V250.157H224.78V293.908H212.646ZM218.741 244.517C216.937 244.517 215.39 243.919 214.098 242.723C212.826 241.508 212.19 240.055 212.19 238.365C212.19 236.694 212.826 235.26 214.098 234.064C215.39 232.848 216.937 232.241 218.741 232.241C220.545 232.241 222.083 232.848 223.355 234.064C224.647 235.26 225.292 236.694 225.292 238.365C225.292 240.055 224.647 241.508 223.355 242.723C222.083 243.919 220.545 244.517 218.741 244.517Z" fill="black"/>
<path d="M154.831 293.908V235.573H167.164V261.294H167.933L188.926 235.573H203.709L182.061 261.693L203.965 293.908H189.211L173.231 269.925L167.164 277.331V293.908H154.831Z" fill="black"/>
<path d="M91.4309 230.563C91.1932 232.629 91.5047 238.107 94.6528 243.493L102.879 253.859L112.711 250.281C117.954 248.372 120.774 243.882 121.706 240.326L110.682 240.628L108.474 232.524C106.171 234.352 100.014 237.83 100.014 237.83C100.014 237.83 93.7755 232.926 91.4309 230.563Z" fill="black"/>
<path d="M109.09 281.671C109.09 288.429 103.611 293.908 96.8528 293.908C90.0944 293.908 84.6157 288.429 84.6157 281.671C84.6157 274.912 90.0944 269.434 96.8528 269.434C103.611 269.434 109.09 274.912 109.09 281.671Z" fill="#F43F5E"/>
<path d="M121.327 269.434C121.327 276.192 115.848 281.671 109.09 281.671C102.332 281.671 96.8529 276.192 96.8529 269.434C96.8529 262.675 102.332 257.196 109.09 257.196C115.848 257.196 121.327 262.675 121.327 269.434Z" fill="#F43F5E"/>
<path d="M113.169 253.117C113.169 259.876 107.69 265.355 100.932 265.355C94.1737 265.355 88.6949 259.876 88.6949 253.117C88.6949 246.359 94.1737 240.88 100.932 240.88C107.69 240.88 113.169 246.359 113.169 253.117Z" fill="#F43F5E"/>
<path d="M129.485 257.196C129.485 263.955 124.007 269.434 117.248 269.434C110.49 269.434 105.011 263.955 105.011 257.196C105.011 250.438 110.49 244.959 117.248 244.959C124.007 244.959 129.485 250.438 129.485 257.196Z" fill="#F43F5E"/>
<path d="M100.932 249.038C100.932 255.797 95.4532 261.276 88.6948 261.276C81.9364 261.276 76.4576 255.797 76.4576 249.038C76.4576 242.28 81.9364 236.801 88.6948 236.801C95.4532 236.801 100.932 242.28 100.932 249.038Z" fill="#F43F5E"/>
<path d="M100.932 265.355C100.932 272.113 95.4533 277.592 88.6949 277.592C81.9365 277.592 76.4577 272.113 76.4577 265.355C76.4577 258.596 81.9365 253.117 88.6949 253.117C95.4533 253.117 100.932 258.596 100.932 265.355Z" fill="#F43F5E"/>
</svg>
